<?xml version="1.0" encoding="UTF-8"?>
<svg version="1.1" viewBox="0 0 1200 630" xmlns="http://www.w3.org/2000/svg">
<rect width="1200" height="630" fill="#fff"/>
<g transform="translate(-1.9775e-5 -2.1169)" fill="#1a1a1a">
<g stroke-width="5.361" aria-label="Crafting Digital
Experiences">
<path d="m153.74 273.26c34.272 0 42.048-6.528 41.952-27.936l-15.456-0.384c-0.096 10.656-2.976 14.4-26.304 14.4-22.848 0-26.688-4.128-26.688-21.12v-0.768c0-16.608 3.648-21.12 26.496-21.12 23.424 0 26.4 3.648 26.4 14.4l15.456-0.384c0.192-21.696-7.68-27.936-41.856-27.936-34.08 0-42.528 7.968-42.528 33.888v3.072c0 25.824 8.448 33.888 42.528 33.888zm53.28-16.704c0 6.912 0 10.944-0.096 15.36h15.456c-0.096-4.512-0.096-8.448-0.096-15.36v-10.56c0-14.496 3.264-17.568 18.144-17.568 14.112 0 16.128 2.112 16.128 10.944v1.824l14.784-0.192c0.096-2.88 0.096-4.608 0.096-6.912 0-14.976-4.608-19.392-24.768-19.392-13.632 0-21.024 3.456-24.96 10.176l-0.192-9.024h-14.592c0.096 3.84 0.096 7.584 0.096 13.728zm99.936 16.512c16.224 0 23.616-3.072 27.168-8.448l0.192 7.296h14.208c-0.096-7.584-0.096-12.48-0.096-18.24 0-9.6 0.096-12.48 0.096-20.064 0-12.96-5.568-18.912-34.944-18.912-26.976 0-33.792 4.8-33.6 18.432l14.208 0.288c0-5.28 1.632-7.008 19.008-7.008 17.472 0 19.968 2.4 19.968 10.464v6.336c-3.936-4.032-11.52-5.856-26.208-5.856-24.48 0-29.568 5.28-29.568 18.048 0 12.672 4.896 17.664 29.568 17.664zm6.048-11.136c-17.472 0-20.352-1.824-20.352-7.104 0-5.472 2.016-7.68 20.736-7.68 17.472 0 20.16 2.208 20.16 5.952v1.824c0 4.896-2.688 7.008-20.544 7.008zm53.376-19.968c0 7.68 0 22.368-0.096 29.952h15.456c-0.096-4.608-0.096-9.312-0.096-15.36v-24.576h15.168v-12.96h-15.168v-0.48c0-5.568 1.248-6.816 6.144-7.104 3.936-0.288 7.968-0.48 10.176-0.48l-0.48-11.424c-3.36 0.096-8.064 0.288-13.344 0.672-13.92 0.96-17.856 4.512-17.856 16.896v1.92h-9.408l-0.384 12.96h9.888v9.984zm42.336-6.624c0 6.432-0.096 12.288-0.096 16.8 0 16.416 5.952 20.256 30.528 20.256 3.648 0 7.392-0.192 11.52-0.48l-0.096-12.864c-3.84 0.192-5.856 0.288-9.984 0.288-13.824 0-16.608-1.44-16.608-11.904v-18.624h26.592v-12.96h-26.592c0-4.608 0-8.16 0.096-10.944l-15.456 0.288c0.096 4.128 0.096 7.2 0.096 10.656h-10.176v12.96h10.176zm52.128-35.424v10.272h15.456v-10.272zm0.096 54.816c0 7.584 0 12.48-0.096 17.184h15.456c-0.096-4.608-0.096-9.6-0.096-17.088v-23.232c0-6.72 0-11.808 0.096-15.744h-15.456c0.096 4.032 0.096 9.024 0.096 15.744zm29.568 1.824c0 6.912 0 10.944-0.096 15.36h15.456c-0.096-4.512-0.096-8.448-0.096-15.36v-11.904c0-12.768 3.552-16.224 19.776-16.224 16.704 0 19.584 3.648 19.584 15.072v13.248c0 7.488 0 10.464-0.096 15.168h15.456c-0.096-4.896-0.096-9.024-0.096-15.168v-5.952c0-7.008 0.096-9.888 0.096-14.496 0-15.072-4.608-21.6-28.128-21.6-14.976 0-23.04 3.552-27.168 10.464l-0.192-9.312h-14.592c0.096 3.84 0.096 7.584 0.096 13.728zm112.7 8.544c14.304 0 22.08-3.36 26.208-9.504l-0.096 7.488c-0.096 7.968-3.072 11.232-23.136 11.232-16.704 0-19.104-1.92-19.104-6.144l-14.4 0.384c0 14.016 5.088 17.952 33.888 17.952 30.24 0 37.824-5.472 37.824-20.736 0-7.584-0.096-13.056-0.096-22.656v-14.496c0-5.184 0-9.312 0.096-12.768h-14.592l-0.192 8.544c-4.032-6.144-11.904-9.696-26.496-9.696-24.288 0-32.064 4.608-32.064 24.864v0.672c0 20.16 8.16 24.864 32.16 24.864zm4.704-13.056c-17.664 0-21.408-3.072-21.408-11.904v-0.576c0-8.832 4.224-11.904 21.216-11.904 17.856 0 21.312 3.072 21.312 11.712v0.288c0 8.832-3.744 12.384-21.12 12.384zm88.032 4.8c0 6.336 0 10.272-0.096 15.072h40.512c34.272 0 42.624-7.872 42.624-33.12v-1.92c0-25.248-8.352-33.12-42.624-33.12h-40.512c0.096 4.032 0.096 7.296 0.096 12.288zm40.416-39.36c22.848 0 26.688 4.128 26.688 19.968v0.768c0 15.936-3.84 19.968-26.688 19.968h-24.864v-40.704zm54.336-17.568v10.272h15.456v-10.272zm0.096 54.816c0 7.584 0 12.48-0.096 17.184h15.456c-0.096-4.608-0.096-9.6-0.096-17.088v-23.232c0-6.72 0-11.808 0.096-15.744h-15.456c0.096 4.032 0.096 9.024 0.096 15.744zm58.656 10.368c14.304 0 22.08-3.36 26.208-9.504l-0.096 7.488c-0.096 7.968-3.072 11.232-23.136 11.232-16.704 0-19.104-1.92-19.104-6.144l-14.4 0.384c0 14.016 5.088 17.952 33.888 17.952 30.24 0 37.824-5.472 37.824-20.736 0-7.584-0.096-13.056-0.096-22.656v-14.496c0-5.184 0-9.312 0.096-12.768h-14.592l-0.192 8.544c-4.032-6.144-11.904-9.696-26.496-9.696-24.288 0-32.064 4.608-32.064 24.864v0.672c0 20.16 8.16 24.864 32.16 24.864zm4.704-13.056c-17.664 0-21.408-3.072-21.408-11.904v-0.576c0-8.832 4.224-11.904 21.216-11.904 17.856 0 21.312 3.072 21.312 11.712v0.288c0 8.832-3.744 12.384-21.12 12.384zm50.496-52.128v10.272h15.456v-10.272zm0.096 54.816c0 7.584 0 12.48-0.096 17.184h15.456c-0.096-4.608-0.096-9.6-0.096-17.088v-23.232c0-6.72 0-11.808 0.096-15.744h-15.456c0.096 4.032 0.096 9.024 0.096 15.744zm33.6-19.392c0 6.432-0.096 12.288-0.096 16.8 0 16.416 5.952 20.256 30.528 20.256 3.648 0 7.392-0.192 11.52-0.48l-0.096-12.864c-3.84 0.192-5.856 0.288-9.984 0.288-13.824 0-16.608-1.44-16.608-11.904v-18.624h26.592v-12.96h-26.592c0-4.608 0-8.16 0.096-10.944l-15.456 0.288c0.096 4.128 0.096 7.2 0.096 10.656h-10.176v12.96h10.176zm79.2 37.728c16.224 0 23.616-3.072 27.168-8.448l0.192 7.296h14.208c-0.096-7.584-0.096-12.48-0.096-18.24 0-9.6 0.096-12.48 0.096-20.064 0-12.96-5.568-18.912-34.944-18.912-26.976 0-33.792 4.8-33.6 18.432l14.208 0.288c0-5.28 1.632-7.008 19.008-7.008 17.472 0 19.968 2.4 19.968 10.464v6.336c-3.936-4.032-11.52-5.856-26.208-5.856-24.48 0-29.568 5.28-29.568 18.048 0 12.672 4.896 17.664 29.568 17.664zm6.048-11.136c-17.472 0-20.352-1.824-20.352-7.104 0-5.472 2.016-7.68 20.736-7.68 17.472 0 20.16 2.208 20.16 5.952v1.824c0 4.896-2.688 7.008-20.544 7.008zm49.824-7.2c0 7.584 0 12.48-0.096 17.184h15.456c-0.096-4.608-0.096-9.6-0.096-17.088v-38.976c0-6.72 0-11.712 0.096-15.744h-15.456c0.096 4.032 0.096 9.12 0.096 15.744z"/>
<path d="m193.63 376.46c0 7.008 0 11.04-0.096 15.456h72.768v-13.056c-10.56 0.096-31.488 0.096-44.352 0.096h-12.768v-15.552h15.744c10.56 0 16.992 0 35.616 0.096v-12.576h-51.36v-14.208h10.176c12.384 0 30.624 0 45.216 0.096v-13.056h-71.04c0.096 4.032 0.096 7.2 0.096 12.096zm76.992 15.456h18.432l11.904-12.96c3.168-3.552 6.432-7.2 9.408-10.464 2.976 3.552 6.048 7.008 8.928 10.272l11.808 13.152h18.816c-7.488-7.872-18.336-19.968-26.208-28.896 7.488-8.352 17.856-19.872 24.864-27.168h-18.336l-11.136 12.672c-3.168 3.84-6.336 7.488-8.928 10.464-2.976-3.456-5.952-7.008-8.928-10.56l-10.752-12.576h-18.816c6.72 7.488 17.184 19.968 24.96 28.992-8.16 8.64-18.816 19.872-26.016 27.072zm86.784 0c0 5.76 0 10.56-0.096 13.44h15.552c-0.096-3.84-0.096-11.424-0.096-21.504 4.32 5.952 12 9.216 25.632 9.216 25.44 0 32.256-5.952 32.256-27.744v-2.88c0-21.792-6.624-27.744-31.776-27.744-14.688 0-22.56 3.456-26.688 9.984v-8.832h-14.88c0.096 4.032 0.096 7.776 0.096 12.384zm15.264-27.648v-0.768c0-11.808 3.552-15.072 21.12-15.072 17.856 0 21.408 2.88 21.408 15.168v0.576c0 12.192-3.552 15.168-21.792 15.168-17.184 0-20.736-3.264-20.736-15.072zm102.62 28.8c29.472 0 35.52-5.568 35.52-20.352l-15.072-0.384c0 5.856-2.208 8.352-20.352 8.352-16.8 0-20.736-2.784-21.312-13.248h56.736v-4.992c-0.096-21.408-7.296-27.744-35.904-27.744-28.704 0-36.384 6.336-36.384 27.744v2.88c0 21.408 7.68 27.744 36.768 27.744zm-0.384-47.424c16.608 0 19.776 2.784 20.16 12.096h-40.896c0.768-9.6 4.896-12.096 20.736-12.096zm46.848 30.912c0 6.912 0 10.944-0.096 15.36h15.456c-0.096-4.512-0.096-8.448-0.096-15.36v-10.56c0-14.496 3.264-17.568 18.144-17.568 14.112 0 16.128 2.112 16.128 10.944v1.824l14.784-0.192c0.096-2.88 0.096-4.608 0.096-6.912 0-14.976-4.608-19.392-24.768-19.392-13.632 0-21.024 3.456-24.96 10.176l-0.192-9.024h-14.592c0.096 3.84 0.096 7.584 0.096 13.728zm74.304-56.64v10.272h15.456v-10.272zm0.096 54.816c0 7.584 0 12.48-0.096 17.184h15.456c-0.096-4.608-0.096-9.6-0.096-17.088v-23.232c0-6.72 0-11.808 0.096-15.744h-15.456c0.096 4.032 0.096 9.024 0.096 15.744zm63.264 18.336c29.472 0 35.52-5.568 35.52-20.352l-15.072-0.384c0 5.856-2.208 8.352-20.352 8.352-16.8 0-20.736-2.784-21.312-13.248h56.736v-4.992c-0.096-21.408-7.296-27.744-35.904-27.744-28.704 0-36.384 6.336-36.384 27.744v2.88c0 21.408 7.68 27.744 36.768 27.744zm-0.384-47.424c16.608 0 19.776 2.784 20.16 12.096h-40.896c0.768-9.6 4.896-12.096 20.736-12.096zm46.848 30.912c0 6.912 0 10.944-0.096 15.36h15.456c-0.096-4.512-0.096-8.448-0.096-15.36v-11.904c0-12.768 3.552-16.224 19.776-16.224 16.704 0 19.584 3.648 19.584 15.072v13.248c0 7.488 0 10.464-0.096 15.168h15.456c-0.096-4.896-0.096-9.024-0.096-15.168v-5.952c0-7.008 0.096-9.888 0.096-14.496 0-15.072-4.608-21.6-28.128-21.6-14.976 0-23.04 3.552-27.168 10.464l-0.192-9.312h-14.592c0.096 3.84 0.096 7.584 0.096 13.728zm116.93 16.512c28.992 0 35.904-6.432 35.904-24l-15.072-0.384c0 7.776-3.264 11.04-20.832 11.04-17.76 0-20.928-3.168-20.928-15.552v-0.576c0-12.384 3.168-15.648 20.928-15.648 17.568 0 20.64 3.36 20.64 11.04l15.072-0.288c0-18.336-6.72-24-35.712-24-28.8 0-36.384 6.336-36.384 27.744v2.88c0 21.408 7.584 27.744 36.384 27.744zm80.352 0c29.472 0 35.52-5.568 35.52-20.352l-15.072-0.384c0 5.856-2.208 8.352-20.352 8.352-16.8 0-20.736-2.784-21.312-13.248h56.736v-4.992c-0.096-21.408-7.296-27.744-35.904-27.744-28.704 0-36.384 6.336-36.384 27.744v2.88c0 21.408 7.68 27.744 36.768 27.744zm-0.384-47.424c16.608 0 19.776 2.784 20.16 12.096h-40.896c0.768-9.6 4.896-12.096 20.736-12.096zm78.048 47.424c28.512 0 32.928-4.8 32.928-17.472 0-11.04-3.84-15.936-31.776-17.952-19.296-1.344-20.736-2.688-20.736-6.432s2.208-5.28 17.184-5.28c16.128 0 18.144 1.632 18.144 6.24v1.056l14.976-0.288c0-13.632-4.128-18.24-32.832-18.24-26.688 0-32.16 5.088-32.16 17.184 0 11.616 4.32 15.84 29.952 17.664 20.256 1.536 21.984 2.88 21.984 7.104 0 4.032-1.536 5.472-17.472 5.472-18.432 0-20.544-1.728-20.544-7.2v-1.248l-14.784 0.288c0 16.032 5.376 19.104 35.136 19.104z"/>
</g>
<path d="m506.5 112.5q1.008-0.96 2.256-1.776 1.104-0.672 2.592-1.248t3.312-0.576q2.496 0 4.128 1.296 1.632 1.248 1.632 3.456 0 0.624-0.144 1.536-0.144 0.864-0.336 1.824t-0.432 1.968q-0.192 0.96-0.336 1.728l-2.016 9.36h-9.744l2.64-12.528q0.096-0.624 0.24-1.248 0.144-0.672 0.144-1.2 0-0.72-0.384-1.152-0.336-0.48-1.056-0.48-0.864 0-1.68 0.624-0.768 0.624-1.2 1.056l-3.168 14.928h-9.792l4.368-20.64h7.824l0.864 3.072zm33.168-3.072h9.792l-4.416 20.64h-7.776l-0.864-3.072h-0.288q-1.248 1.488-3.408 2.496-2.112 0.96-4.272 0.96-2.88 0-4.512-1.44-1.632-1.488-1.632-3.84 0-1.2 0.384-2.976 0.432-1.824 0.768-3.408l2.016-9.36h9.744l-2.4 11.232q-0.096 0.384-0.192 0.912t-0.192 1.056q-0.096 0.48-0.192 0.96-0.048 0.432-0.048 0.72 0 0.72 0.288 1.248 0.336 0.48 1.152 0.48 0.864 0 1.632-0.576t1.2-1.104zm14.064 0h7.824l0.72 3.6h0.336q1.104-1.728 2.832-2.928t4.56-1.2q0.192 0 0.576 0.048 0.432 0 0.912 0.144 0.528 0.096 1.056 0.336 0.576 0.192 1.104 0.576l-2.112 9.888h-5.232q-0.096-2.976-0.528-4.128-0.432-1.2-1.392-1.2-0.48 0-1.056 0.24-0.528 0.192-1.104 0.912l-3.072 14.352h-9.792zm28.608 20.64h-9.792l6.816-32.256h9.84zm14.016 0h-9.744l4.368-20.64h9.84zm5.712-26.928q0 1.104-0.48 1.92-0.432 0.816-1.2 1.392-0.72 0.576-1.68 0.864t-1.968 0.288q-1.92 0-3.216-0.912t-1.296-2.88q0-1.056 0.432-1.872 0.432-0.864 1.152-1.392 0.768-0.576 1.728-0.864 1.008-0.288 2.064-0.288 1.872 0 3.168 0.912t1.296 2.832zm11.952 9.36q1.008-0.96 2.256-1.776 1.104-0.672 2.64-1.248t3.456-0.576q2.304 0 3.408 1.056 1.152 1.056 1.296 2.592h0.288q1.104-1.008 2.4-1.824 1.104-0.672 2.592-1.248t3.168-0.576q2.496 0 4.032 1.392 1.584 1.344 1.584 3.504 0 1.104-0.384 2.928t-0.864 3.984l-2.016 9.36h-9.456l2.592-12.528q0.144-0.72 0.288-1.392t0.144-1.104q0-0.672-0.384-1.104-0.384-0.48-1.104-0.48-0.912 0-1.728 0.672-0.768 0.624-1.2 1.056l-3.12 14.88h-8.976l2.64-12.528q0.096-0.624 0.24-1.248 0.144-0.672 0.144-1.2 0-0.72-0.384-1.152-0.336-0.48-1.056-0.48-0.864 0-1.68 0.624-0.768 0.624-1.2 1.056l-3.168 14.928h-9.792l4.368-20.64h7.824l0.864 3.072zm31.92-1.296q2.448-1.2 4.992-1.728 2.592-0.576 5.76-0.576 3.072 0 5.088 0.48t3.216 1.392 1.68 2.16 0.48 2.832q0 0.912-0.144 1.968-0.096 1.056-0.24 1.776l-2.256 10.56h-7.728l-0.864-3.072h-0.288q-1.536 1.68-3.6 2.592-2.016 0.864-4.032 0.864-1.152 0-2.256-0.336t-1.968-1.008q-0.864-0.72-1.392-1.776-0.528-1.104-0.528-2.64 0-2.496 1.344-3.936 1.392-1.488 3.6-2.208 2.256-0.768 5.04-0.96 2.832-0.192 5.664-0.192 0.096-0.48 0.24-1.344 0.144-0.912 0.144-1.584 0-0.864-0.48-1.584-0.432-0.768-1.872-0.768-1.68 0-2.496 1.008-0.768 0.96-1.008 2.352h-7.008zm11.04 8.448h-0.864q-1.392 0-2.4 0.384-0.96 0.336-1.584 0.912-0.576 0.576-0.864 1.296t-0.288 1.44q0 1.152 0.576 1.728 0.624 0.576 1.44 0.576 1.008 0 1.968-0.72 1.008-0.72 1.248-1.92zm24.864-7.152q1.008-0.96 2.256-1.776 1.104-0.672 2.592-1.248t3.312-0.576q2.496 0 4.128 1.296 1.632 1.248 1.632 3.456 0 0.624-0.144 1.536-0.144 0.864-0.336 1.824t-0.432 1.968q-0.192 0.96-0.336 1.728l-2.016 9.36h-9.744l2.64-12.528q0.096-0.624 0.24-1.248 0.144-0.672 0.144-1.2 0-0.72-0.384-1.152-0.336-0.48-1.056-0.48-0.864 0-1.68 0.624-0.768 0.624-1.2 1.056l-3.168 14.928h-9.792l4.368-20.64h7.824l0.864 3.072zm25.008 13.344q0 1.104-0.48 1.968-0.432 0.864-1.2 1.44-0.72 0.576-1.68 0.864-0.96 0.336-2.016 0.336-1.824 0-3.12-0.96-1.248-1.008-1.248-3.12 0-1.104 0.432-1.968t1.152-1.44 1.632-0.864q0.96-0.336 1.968-0.336 1.968 0 3.264 1.008 1.296 0.96 1.296 3.072z" stroke-width=".41442" aria-label="nurliman."/>
<g aria-label="Simple Solutions with a Significant Purpose,
Navigating the Landscape of Digital Development.">
<path d="m293.59 490.81c7.1467 0 8.32-1.2373 8.32-4.48 0-3.072-1.1093-4.3093-8.4267-4.8-5.6746-0.36267-6.2293-0.832-6.2293-2.2187 0-1.3013 0.68267-1.8347 5.312-1.8347 5.0133 0 5.8453 0.46934 5.8453 1.92v0.42667l2.7733-0.064v-0.29867c0-3.1573-1.216-4.3947-8.6187-4.3947-6.9546 0-8.192 1.3013-8.192 4.4373 0 3.1573 1.1307 4.096 8.384 4.608 5.6107 0.40533 6.2933 0.93867 6.2933 2.304v0.0213c0 1.4507-0.55467 1.9413-5.4827 1.9413-5.6107 0-6.528-0.36267-6.528-2.0907v-0.49067l-2.7947 0.064v0.34133c0 3.6907 1.4933 4.608 9.344 4.608zm11.115-16.107v2.1333h2.816v-2.1333zm0.0213 12.224c0 1.5573 0 2.6027-0.0213 3.584h2.816c-0.0213-0.98133-0.0213-2.0267-0.0213-3.5627v-5.312c0-1.5147 0-2.6453 0.0213-3.5413h-2.816c0.0213 0.896 0.0213 2.048 0.0213 3.5413zm6.3146 0.17066c0 1.6 0 2.4747-0.0213 3.4133h2.816c-0.0213-0.93867-0.0213-1.7707-0.0213-3.4133v-2.816c0-3.0507 0.87466-3.9253 3.968-3.9253 2.752 0 3.4987 0.66133 3.4987 2.8587v3.9467c0 1.6 0 2.2827-0.0213 3.3493h2.7947c-0.0213-1.3013-0.0213-2.2613-0.0213-3.4133v-2.816c0-3.0507 0.93866-3.9253 3.9893-3.9253 2.752 0 3.4987 0.66133 3.4987 2.8587v3.9253c0 1.6213 0 2.304-0.0213 3.3707h2.816c-0.0213-1.28-0.0213-2.24-0.0213-3.3707v-1.152c0-1.92 0.0213-2.944 0.0213-3.904 0-3.0507-1.0453-4.2453-5.2267-4.2453-2.752 0-4.352 0.768-5.2053 2.2827-0.512-1.6213-1.8773-2.2827-4.9493-2.2827-2.7307 0-4.3733 0.72533-5.2693 2.24l-0.0213-1.984h-2.624c0.0213 0.832 0.0213 1.6427 0.0213 3.1147zm26.709 3.4133c0 1.28 0 2.3467-0.0213 2.9867h2.8373c-0.0213-0.85333-0.0213-2.4533-0.0213-4.7147 1.0027 1.3227 2.7733 1.984 5.7813 1.984 5.76 0 7.3173-1.3653 7.3173-6.144v-0.64c0-4.7787-1.536-6.144-7.2107-6.144-3.2 0-5.0347 0.72533-6.016 2.1333v-1.8773h-2.688c0.0213 0.896 0.0213 1.6853 0.0213 2.7093zm2.7733-6.1227v-0.17066c0-2.9867 0.85333-3.8613 5.1413-3.8613 4.3307 0 5.184 0.768 5.184 3.8613v0.17066c0 3.072-0.85333 3.8613-5.2906 3.8613-4.1813 0-5.0347-0.85333-5.0347-3.8613zm15.915 2.5387c0 1.5573 0 2.6027-0.0213 3.584h2.816c-0.0213-0.98133-0.0213-2.0267-0.0213-3.5627v-8.832c0-1.5147 0-2.6667 0.0213-3.5627h-2.816c0.0213 0.91733 0.0213 2.048 0.0213 3.5413zm13.568 3.84c6.3787 0 7.6373-1.2373 7.6373-4.3733l-2.7093-0.0853c0 1.4507-0.55467 2.1333-4.9067 2.1333-4.1387 0-5.0773-0.72533-5.2053-3.328h12.821c0-0.31999 0.0213-0.70399 0-1.1307-0.0213-4.736-1.536-6.144-7.7653-6.144-6.208 0-7.872 1.408-7.872 6.144v0.64c0 4.736 1.664 6.144 8 6.144zm-0.10666-10.795c4.0107 0 4.8 0.74667 4.864 3.1573h-9.9413c0.17067-2.496 1.152-3.1573 5.0773-3.1573zm27.221 10.837c7.1467 0 8.32-1.2373 8.32-4.48 0-3.072-1.1093-4.3093-8.4267-4.8-5.6746-0.36267-6.2293-0.832-6.2293-2.2187 0-1.3013 0.68267-1.8347 5.312-1.8347 5.0133 0 5.8453 0.46934 5.8453 1.92v0.42667l2.7733-0.064v-0.29867c0-3.1573-1.216-4.3947-8.6186-4.3947-6.9546 0-8.192 1.3013-8.192 4.4373 0 3.1573 1.1307 4.096 8.384 4.608 5.6107 0.40533 6.2933 0.93867 6.2933 2.304v0.0213c0 1.4507-0.55466 1.9413-5.4826 1.9413-5.6107 0-6.528-0.36267-6.528-2.0907v-0.49067l-2.7947 0.064v0.34133c0 3.6907 1.4933 4.608 9.344 4.608zm18.304-0.0427c6.3573 0 7.9787-1.408 7.9787-6.144v-0.64c0-4.736-1.6213-6.144-7.9787-6.144-6.336 0-7.9573 1.408-7.9573 6.144v0.64c0 4.736 1.6213 6.144 7.9573 6.144zm0-2.4747c-4.352 0-5.1626-0.81067-5.1626-3.904v-0.17066c0-3.1147 0.81066-3.904 5.1626-3.904 4.3733 0 5.1627 0.78933 5.1627 3.904v0.17066c0 3.0933-0.78933 3.904-5.1627 3.904zm10.773-1.3653c0 1.5573 0 2.6027-0.0213 3.584h2.816c-0.0213-0.98133-0.0213-2.0267-0.0213-3.5627v-8.832c0-1.5147 0-2.6667 0.0213-3.5627h-2.816c0.0213 0.91733 0.0213 2.048 0.0213 3.5413zm6.2506-4.1387c0 1.408-0.0213 1.984-0.0213 2.944 0 3.5627 1.0453 5.0347 6.4427 5.0347 3.1147 0 4.928-0.74667 5.888-2.1973l0.0427 1.9413h2.6027c-0.0213-0.85333-0.0213-1.6427-0.0213-3.1147v-5.888c0-1.6213 0-2.4747 0.0213-3.4133h-2.7947c0.0213 0.93866 0.0213 1.7707 0.0213 3.4133v2.816c0 3.0293-0.896 3.9253-4.7147 3.9253-3.9893 0-4.7147-0.93867-4.7147-3.648v-3.136c0-1.728 0-2.368 0.0213-3.3707h-2.7947c0.0213 1.0453 0.0213 1.9413 0.0213 3.3707zm19.221-0.17067c0 1.2373-0.0213 2.4747-0.0213 3.456 0 3.648 1.216 4.544 6.464 4.544 0.87466 0 1.7067-0.0427 2.496-0.10667l-0.0213-2.4107c-0.85333 0.064-1.3013 0.0853-2.24 0.0853-3.1787 0-3.904-0.32-3.904-2.7733v-4.9067h6.144v-2.4107h-6.144c0-1.0667 0-1.8773 0.0213-2.432l-2.816 0.0427c0.0213 0.96 0.0213 1.6427 0.0213 2.3893h-2.24v2.4107h2.24zm11.477-7.9147v2.1333h2.816v-2.1333zm0.0213 12.224c0 1.5573 0 2.6027-0.0213 3.584h2.816c-0.0213-0.98133-0.0213-2.0267-0.0213-3.5627v-5.312c0-1.5147 0-2.6453 0.0213-3.5413h-2.816c0.0213 0.896 0.0213 2.048 0.0213 3.5413zm13.525 3.84c6.3573 0 7.9786-1.408 7.9786-6.144v-0.64c0-4.736-1.6213-6.144-7.9786-6.144-6.336 0-7.9573 1.408-7.9573 6.144v0.64c0 4.736 1.6213 6.144 7.9573 6.144zm0-2.4747c-4.352 0-5.1627-0.81067-5.1627-3.904v-0.17066c0-3.1147 0.81066-3.904 5.1627-3.904 4.3733 0 5.1627 0.78933 5.1627 3.904v0.17066c0 3.0933-0.78934 3.904-5.1627 3.904zm10.731-1.1947c0 1.6 0 2.4747-0.0213 3.4133h2.816c-0.0213-0.93867-0.0213-1.7707-0.0213-3.4133v-2.816c0-3.0507 0.896-3.9253 4.7787-3.9253 4.0107 0 4.736 0.93866 4.736 3.6267v3.1573c0 1.728 0 2.368-0.0213 3.3707h2.816c-0.0213-1.0453-0.0213-1.9413-0.0213-3.3707v-1.3227c0-1.4293 0.0213-2.0053 0.0213-2.944 0-3.5627-1.0453-5.0347-6.4853-5.0347-3.1787 0-4.992 0.74667-5.9733 2.1973l-0.0213-1.9413h-2.624c0.0213 0.832 0.0213 1.6427 0.0213 3.1147zm25.173 3.6693c6.272 0 7.168-1.024 7.168-3.712 0-2.496-0.81067-3.52-7.104-3.9893-4.4587-0.36267-4.7573-0.68267-4.7573-1.6427 0-0.98133 0.576-1.3867 4.224-1.3867 3.84 0 4.3947 0.448 4.3947 1.6v0.27733l2.752-0.064c0-2.9867-0.98133-4.0107-7.0613-4.0107-5.8027 0-6.976 1.088-6.976 3.7333 0 2.56 0.96 3.4133 6.6347 3.8613 4.736 0.36267 5.0987 0.72534 5.0987 1.792 0 1.024-0.384 1.4293-4.3093 1.4293-4.3093 0-4.864-0.42666-4.864-1.8987v-0.32l-2.7307 0.064c0 3.5627 1.152 4.2667 7.5307 4.2667zm27.157-5.952c0.46933-1.3013 0.96-2.624 1.4293-3.84h0.68267c0.40533 1.2373 0.85333 2.6027 1.2587 3.8827l1.8987 5.6533h4.3307c1.1307-3.0293 3.6267-9.5146 4.8427-12.416h-2.9653l-1.8987 5.3547c-0.53333 1.4933-1.0667 3.0293-1.5573 4.416h-0.896c-0.42666-1.28-0.896-2.7307-1.3653-4.1387l-1.92-5.632h-4.032l-2.0053 5.5893c-0.512 1.408-1.0453 2.8587-1.4933 4.1813h-0.93866c-0.42667-1.344-0.91734-2.8587-1.3867-4.3093l-1.8133-5.4613h-3.1147c1.1093 2.8587 3.4347 9.3866 4.4587 12.416h4.3307zm16.341-10.112v2.1333h2.816v-2.1333zm0.0213 12.224c0 1.5573 0 2.6027-0.0213 3.584h2.816c-0.0213-0.98133-0.0213-2.0267-0.0213-3.5627v-5.312c0-1.5147 0-2.6453 0.0213-3.5413h-2.816c0.0213 0.896 0.0213 2.048 0.0213 3.5413zm7.1039-4.3093c0 1.2373-0.0213 2.4747-0.0213 3.456 0 3.648 1.216 4.544 6.464 4.544 0.87467 0 1.7067-0.0427 2.496-0.10667l-0.0213-2.4107c-0.85333 0.064-1.3013 0.0853-2.24 0.0853-3.1787 0-3.904-0.32-3.904-2.7733v-4.9067h6.144v-2.4107h-6.144c0-1.0667 0-1.8773 0.0213-2.432l-2.816 0.0427c0.0213 0.96 0.0213 1.6427 0.0213 2.3893h-2.24v2.4107h2.24zm11.477 4.3093c0 1.6427 0 2.5173-0.0213 3.584h2.7947c-0.0213-1.152-0.0213-2.0693-0.0213-3.6267v-2.6027c0-3.0507 0.896-3.9253 4.7787-3.9253 4.032 0 4.7573 0.93866 4.7573 3.6267v3.1573c0 1.5147 0 2.2613-0.0213 3.3707h2.7947c-0.0213-1.216-0.0213-2.2187-0.0213-3.328v-1.3653c0-1.4293 0.0213-2.0053 0.0213-2.944 0-3.5627-1.0453-5.0347-6.4853-5.0347-3.0933 0-4.9067 0.704-5.888 2.112 0.0427-1.4507 0.10667-5.0133 0.10667-5.3973h-2.816c0.0213 0.91733 0.0213 2.0267 0.0213 3.5413zm32.725 3.84c3.4347 0 5.2267-0.66133 6.08-1.792l0.0427 1.536h2.5173c-0.0213-1.6853-0.0213-2.7733-0.0213-4.0533 0-1.9627 0.0213-2.688 0.0213-4.3733 0-2.9013-1.152-4.2453-7.5733-4.2453-5.8667 0-7.2747 1.1307-7.232 3.9467l2.6667 0.064c-0.0213-1.3227 0.42667-1.7493 4.5227-1.7493 4.2027 0 4.8427 0.59733 4.8427 2.56v1.4293c-0.93866-0.832-2.7093-1.2587-5.8667-1.2587-5.5253 0-6.6986 1.1733-6.6986 4.0107 0 2.7947 1.1307 3.9253 6.6986 3.9253zm0.98134-2.1547c-4.1173 0-4.8853-0.46934-4.8853-1.8347 0-1.3867 0.512-1.9627 4.928-1.9627 4.2453 0 4.9067 0.55466 4.9067 1.4507v0.53334c0 1.2373-0.66133 1.8133-4.9493 1.8133zm27.861 2.1973c7.1466 0 8.32-1.2373 8.32-4.48 0-3.072-1.1093-4.3093-8.4266-4.8-5.6747-0.36267-6.2293-0.832-6.2293-2.2187 0-1.3013 0.68266-1.8347 5.312-1.8347 5.0133 0 5.8453 0.46934 5.8453 1.92v0.42667l2.7733-0.064v-0.29867c0-3.1573-1.216-4.3947-8.6186-4.3947-6.9547 0-8.192 1.3013-8.192 4.4373 0 3.1573 1.1307 4.096 8.384 4.608 5.6107 0.40533 6.2933 0.93867 6.2933 2.304v0.0213c0 1.4507-0.55466 1.9413-5.4827 1.9413-5.6106 0-6.528-0.36267-6.528-2.0907v-0.49067l-2.7947 0.064v0.34133c0 3.6907 1.4933 4.608 9.344 4.608zm11.115-16.107v2.1333h2.816v-2.1333zm0.0213 12.224c0 1.5573 0 2.6027-0.0213 3.584h2.816c-0.0213-0.98133-0.0213-2.0267-0.0213-3.5627v-5.312c0-1.5147 0-2.6453 0.0213-3.5413h-2.816c0.0213 0.896 0.0213 2.048 0.0213 3.5413zm12.864 2.1973c3.136 0 4.928-0.704 5.888-1.984v1.4293c-0.0427 1.984-0.768 2.8587-5.5467 2.8587-4.0107 0-4.672-0.512-4.672-1.6213l-2.624 0.0853c0 2.9653 1.28 3.8613 7.3387 3.8613 6.6133 0 8.2346-1.2373 8.2346-4.7573 0-1.664-0.0213-2.9013-0.0213-4.8853v-3.2c0-1.1093 0-1.984 0.0213-2.816h-2.624l-0.0213 1.7707c-0.96-1.3227-2.7733-2.0267-5.9733-2.0267-5.3973 0-7.296 1.0453-7.296 5.5467v0.192c0 4.5227 2.0053 5.5467 7.296 5.5467zm0.72533-2.4107c-4.3093 0-5.2267-0.78933-5.2267-3.1573v-0.17066c0-2.3467 1.088-3.136 5.2053-3.136 4.2667 0 5.12 0.81067 5.12 3.136 0 2.368-0.93867 3.328-5.0987 3.328zm11.371 0.384c0 1.6 0 2.4747-0.0213 3.4133h2.816c-0.0213-0.93867-0.0213-1.7707-0.0213-3.4133v-2.816c0-3.0507 0.896-3.9253 4.7787-3.9253 4.0107 0 4.736 0.93866 4.736 3.6267v3.1573c0 1.728 0 2.368-0.0213 3.3707h2.816c-0.0213-1.0453-0.0213-1.9413-0.0213-3.3707v-1.3227c0-1.4293 0.0213-2.0053 0.0213-2.944 0-3.5627-1.0453-5.0347-6.4853-5.0347-3.1787 0-4.992 0.74667-5.9733 2.1973l-0.0213-1.9413h-2.624c0.0213 0.832 0.0213 1.6427 0.0213 3.1147zm18.539-12.395v2.1333h2.816v-2.1333zm0.0213 12.224c0 1.5573 0 2.6027-0.0213 3.584h2.816c-0.0213-0.98133-0.0213-2.0267-0.0213-3.5627v-5.312c0-1.5147 0-2.6453 0.0213-3.5413h-2.816c0.0213 0.896 0.0213 2.048 0.0213 3.5413zm7.04-3.328c0 1.7067 0 5.2267-0.0213 6.912h2.816c-0.0213-0.98133-0.0213-2.112-0.0213-3.4133v-6.2506h3.3067v-2.4107h-3.3067v-0.14933c0-1.2373 0.29867-1.5147 1.344-1.5787 0.832-0.064 1.728-0.0853 2.24-0.0853l-0.0853-2.1973c-0.59733 0.0213-1.6853 0.0427-2.7733 0.128-2.6667 0.17067-3.52 0.91733-3.52 3.4773v0.40533h-2.048l-0.0853 2.4107h2.1547v2.752zm8.1066-8.896v2.1333h2.816v-2.1333zm0.0213 12.224c0 1.5573 0 2.6027-0.0213 3.584h2.816c-0.0213-0.98133-0.0213-2.0267-0.0213-3.5627v-5.312c0-1.5147 0-2.6453 0.0213-3.5413h-2.816c0.0213 0.896 0.0213 2.048 0.0213 3.5413zm13.44 3.84c6.272 0 7.7653-1.408 7.7653-5.2053l-2.7307-0.064c0 1.984-0.81066 2.7947-5.0133 2.7947-4.288 0-5.0987-0.81067-5.0987-3.904v-0.17066c0-3.1147 0.81066-3.904 5.0987-3.904 4.2027 0 4.9706 0.832 4.9706 2.7947v-0.0213l2.7307-0.064c0-3.904-1.4293-5.184-7.7227-5.184-6.1866 0-7.872 1.408-7.872 6.144v0.64c0 4.736 1.7067 6.144 7.872 6.144zm16.619 0c3.4347 0 5.2267-0.66133 6.08-1.792l0.0427 1.536h2.5173c-0.0213-1.6853-0.0213-2.7733-0.0213-4.0533 0-1.9627 0.0213-2.688 0.0213-4.3733 0-2.9013-1.152-4.2453-7.5733-4.2453-5.8667 0-7.2746 1.1307-7.232 3.9467l2.6667 0.064c-0.0213-1.3227 0.42666-1.7493 4.5227-1.7493 4.2027 0 4.8426 0.59733 4.8426 2.56v1.4293c-0.93866-0.832-2.7093-1.2587-5.8666-1.2587-5.5253 0-6.6987 1.1733-6.6987 4.0107 0 2.7947 1.1307 3.9253 6.6987 3.9253zm0.98133-2.1547c-4.1173 0-4.8853-0.46934-4.8853-1.8347 0-1.3867 0.512-1.9627 4.928-1.9627 4.2453 0 4.9066 0.55466 4.9066 1.4507v0.53334c0 1.2373-0.66133 1.8133-4.9493 1.8133zm11.136-1.5147c0 1.6 0 2.4747-0.0213 3.4133h2.816c-0.0213-0.93867-0.0213-1.7707-0.0213-3.4133v-2.816c0-3.0507 0.89599-3.9253 4.7786-3.9253 4.0107 0 4.736 0.93866 4.736 3.6267v3.1573c0 1.728 0 2.368-0.0213 3.3707h2.816c-0.0213-1.0453-0.0213-1.9413-0.0213-3.3707v-1.3227c0-1.4293 0.0213-2.0053 0.0213-2.944 0-3.5627-1.0453-5.0347-6.4853-5.0347-3.1787 0-4.992 0.74667-5.9733 2.1973l-0.0213-1.9413h-2.624c0.0213 0.832 0.0213 1.6427 0.0213 3.1147zm19.307-4.48c0 1.2373-0.0213 2.4747-0.0213 3.456 0 3.648 1.216 4.544 6.464 4.544 0.87466 0 1.7067-0.0427 2.496-0.10667l-0.0213-2.4107c-0.85333 0.064-1.3013 0.0853-2.24 0.0853-3.1787 0-3.904-0.32-3.904-2.7733v-4.9067h6.144v-2.4107h-6.1438c0-1.0667 0-1.8773 0.0213-2.432l-2.816 0.0427c0.0213 0.96 0.0213 1.6427 0.0213 2.3893h-2.24v2.4107h2.24zm22.528 4.48v-1.4507c2.3467 0.0213 5.8453 0.0213 7.7013 0.0213 5.2267 0 6.592-1.536 6.592-5.1627v-0.0853c0-3.6267-1.3653-5.056-6.592-5.056h-10.56c0.0213 0.896 0.0213 1.8347 0.0213 3.1573v8.5546c0 1.5147 0 2.432-0.0213 3.4347h2.88c-0.0213-1.024-0.0213-1.8987-0.0213-3.4133zm7.68-9.2586c2.944 0 3.6907 0.66133 3.6907 2.624v0.0427c0 1.9627-0.74667 2.6453-3.6907 2.6453h-7.68v-5.312zm9.0879 4.9493c0 1.408-0.0213 1.984-0.0213 2.944 0 3.5627 1.0453 5.0347 6.4426 5.0347 3.1147 0 4.928-0.74667 5.888-2.1973l0.0427 1.9413h2.6027c-0.0213-0.85333-0.0213-1.6427-0.0213-3.1147v-5.888c0-1.6213 0-2.4747 0.0213-3.4133h-2.7947c0.0213 0.93866 0.0213 1.7707 0.0213 3.4133v2.816c0 3.0293-0.896 3.9253-4.7147 3.9253-3.9893 0-4.7147-0.93867-4.7147-3.648v-3.136c0-1.728 0-2.368 0.0213-3.3707h-2.7947c0.0213 1.0453 0.0213 1.9413 0.0213 3.3707zm18.432 4.3093c0 1.6 0 2.4747-0.0213 3.4133h2.816c-0.0213-0.93867-0.0213-1.7707-0.0213-3.4133v-2.6027c0-3.392 0.85333-4.1387 4.352-4.1387 3.4347 0 3.8613 0.49067 3.8613 2.688v0.40534l2.6667-0.0427c0.0213-0.49066 0.0213-0.832 0.0213-1.216 0-3.4347-1.0027-4.352-5.6106-4.352-2.816 0-4.5227 0.72533-5.44 2.1547l-0.0213-1.8987h-2.624c0.0213 0.832 0.0213 1.6427 0.0213 3.1147zm16.171 3.4133c0 1.28 0 2.3467-0.0213 2.9867h2.8373c-0.0213-0.85333-0.0213-2.4533-0.0213-4.7147 1.0027 1.3227 2.7733 1.984 5.7813 1.984 5.76 0 7.3173-1.3653 7.3173-6.144v-0.64c0-4.7787-1.536-6.144-7.2106-6.144-3.2 0-5.0347 0.72533-6.016 2.1333v-1.8773h-2.688c0.0213 0.896 0.0213 1.6853 0.0213 2.7093zm2.7733-6.1227v-0.17066c0-2.9867 0.85333-3.8613 5.1413-3.8613 4.3307 0 5.184 0.768 5.184 3.8613v0.17066c0 3.072-0.85333 3.8613-5.2907 3.8613-4.1813 0-5.0347-0.85333-5.0347-3.8613zm23.083 6.3787c6.3573 0 7.9787-1.408 7.9787-6.144v-0.64c0-4.736-1.6213-6.144-7.9787-6.144-6.336 0-7.9573 1.408-7.9573 6.144v0.64c0 4.736 1.6213 6.144 7.9573 6.144zm0-2.4747c-4.352 0-5.1627-0.81067-5.1627-3.904v-0.17066c0-3.1147 0.81067-3.904 5.1627-3.904 4.3733 0 5.1627 0.78933 5.1627 3.904v0.17066c0 3.0933-0.78933 3.904-5.1627 3.904zm17.387 2.4747c6.272 0 7.168-1.024 7.168-3.712 0-2.496-0.81067-3.52-7.104-3.9893-4.4587-0.36267-4.7573-0.68267-4.7573-1.6427 0-0.98133 0.57599-1.3867 4.224-1.3867 3.84 0 4.3947 0.448 4.3947 1.6v0.27733l2.752-0.064c0-2.9867-0.98133-4.0107-7.0613-4.0107-5.8027 0-6.976 1.088-6.976 3.7333 0 2.56 0.96 3.4133 6.6347 3.8613 4.736 0.36267 5.0987 0.72534 5.0987 1.792 0 1.024-0.384 1.4293-4.3093 1.4293-4.3093 0-4.864-0.42666-4.864-1.8987v-0.32l-2.7307 0.064c0 3.5627 1.152 4.2667 7.5306 4.2667zm17.024 0c6.3787 0 7.6373-1.2373 7.6373-4.3733l-2.7093-0.0853c0 1.4507-0.55467 2.1333-4.9067 2.1333-4.1387 0-5.0773-0.72533-5.2053-3.328h12.821c0-0.31999 0.0213-0.70399 0-1.1307-0.0213-4.736-1.536-6.144-7.7653-6.144-6.208 0-7.872 1.408-7.872 6.144v0.64c0 4.736 1.664 6.144 8 6.144zm-0.10667-10.795c4.0107 0 4.8 0.74667 4.864 3.1573h-9.9413c0.17066-2.496 1.152-3.1573 5.0773-3.1573zm10.091 7.424v3.136c0.128-0.0213 0.61867-0.0213 1.1093-0.0213-0.0853 0.27733-0.19199 0.53333-0.27733 0.81067l-0.53333 1.7707h2.1333l0.85333-2.624v-3.072z"/>
<path d="m242.84 517.18h2.8373c-0.0213-1.7067-0.0213-4.2667-0.0213-5.76 0-2.1547-0.0427-5.0133-0.064-6.912h0.59733c1.4507 1.984 3.0933 4.2027 4.288 5.8667l5.0773 6.8053h4.8427c-0.0213-1.024-0.0213-1.8773-0.0213-3.456v-8.8533c0-1.152 0-1.856 0.0213-2.8373h-2.8373c0.0213 1.6853 0.0213 4.2667 0.0213 5.9093 0 1.5787 0.0427 4.928 0.064 6.7626h-0.55466c-1.5147-2.0907-3.6267-4.9707-4.4373-6.1227l-4.8213-6.5493h-4.992c0.0213 0.98133 0.0213 1.664 0.0213 2.7947v8.9813c0 1.92 0 2.24-0.0213 3.3707zm27.285 0.256c3.4347 0 5.2267-0.66133 6.08-1.792l0.0427 1.536h2.5173c-0.0213-1.6853-0.0213-2.7733-0.0213-4.0533 0-1.9627 0.0213-2.688 0.0213-4.3733 0-2.9013-1.152-4.2453-7.5733-4.2453-5.8667 0-7.2747 1.1307-7.232 3.9467l2.6667 0.064c-0.0213-1.3227 0.42667-1.7493 4.5227-1.7493 4.2027 0 4.8427 0.59734 4.8427 2.56v1.4293c-0.93866-0.832-2.7093-1.2587-5.8667-1.2587-5.5253 0-6.6986 1.1733-6.6986 4.0107 0 2.7947 1.1307 3.9253 6.6986 3.9253zm0.98134-2.1547c-4.1173 0-4.8853-0.46933-4.8853-1.8347 0-1.3867 0.512-1.9627 4.928-1.9627 4.2453 0 4.9067 0.55467 4.9067 1.4507v0.53333c0 1.2373-0.66133 1.8133-4.9493 1.8133zm19.733 1.8987c1.4507-3.0293 4.5867-9.5146 6.0373-12.416h-3.008l-2.5173 5.3333c-0.72533 1.536-1.4293 3.0933-2.0267 4.4373h-1.536c-0.59733-1.344-1.3227-2.9227-2.0267-4.4587l-2.496-5.312h-3.136c1.4293 2.9013 4.672 9.7067 5.9307 12.416zm7.936-15.808v2.1333h2.816v-2.1333zm0.0213 12.224c0 1.5573 0 2.6027-0.0213 3.584h2.816c-0.0213-0.98133-0.0213-2.0267-0.0213-3.5627v-5.312c0-1.5147 0-2.6453 0.0213-3.5413h-2.816c0.0213 0.896 0.0213 2.048 0.0213 3.5413zm12.864 2.1973c3.136 0 4.928-0.704 5.888-1.984v1.4293c-0.0427 1.984-0.768 2.8587-5.5467 2.8587-4.0107 0-4.672-0.512-4.672-1.6213l-2.624 0.0853c0 2.9653 1.28 3.8613 7.3387 3.8613 6.6133 0 8.2346-1.2373 8.2346-4.7573 0-1.664-0.0213-2.9013-0.0213-4.8853v-3.2c0-1.1093 0-1.984 0.0213-2.816h-2.624l-0.0213 1.7707c-0.96-1.3227-2.7733-2.0267-5.9733-2.0267-5.3973 0-7.296 1.0453-7.296 5.5467v0.192c0 4.5227 2.0053 5.5467 7.296 5.5467zm0.72533-2.4107c-4.3093 0-5.2267-0.78934-5.2267-3.1573v-0.17067c0-2.3467 1.088-3.136 5.2053-3.136 4.2667 0 5.12 0.81066 5.12 3.136 0 2.368-0.93867 3.328-5.0987 3.328zm17.536 4.0533c3.4347 0 5.2267-0.66133 6.08-1.792l0.0427 1.536h2.5173c-0.0213-1.6853-0.0213-2.7733-0.0213-4.0533 0-1.9627 0.0213-2.688 0.0213-4.3733 0-2.9013-1.152-4.2453-7.5733-4.2453-5.8667 0-7.2747 1.1307-7.232 3.9467l2.6667 0.064c-0.0213-1.3227 0.42667-1.7493 4.5227-1.7493 4.2027 0 4.8427 0.59734 4.8427 2.56v1.4293c-0.93867-0.832-2.7093-1.2587-5.8667-1.2587-5.5253 0-6.6986 1.1733-6.6986 4.0107 0 2.7947 1.1307 3.9253 6.6986 3.9253zm0.98133-2.1547c-4.1173 0-4.8853-0.46933-4.8853-1.8347 0-1.3867 0.512-1.9627 4.928-1.9627 4.2453 0 4.9067 0.55467 4.9067 1.4507v0.53333c0 1.2373-0.66133 1.8133-4.9493 1.8133zm11.925-5.9947c0 1.2373-0.0213 2.4747-0.0213 3.456 0 3.648 1.216 4.544 6.464 4.544 0.87466 0 1.7067-0.0427 2.496-0.10667l-0.0213-2.4107c-0.85333 0.064-1.3013 0.0853-2.24 0.0853-3.1787 0-3.904-0.31999-3.904-2.7733v-4.9067h6.144v-2.4107h-6.144c0-1.0667 0-1.8773 0.0213-2.432l-2.816 0.0427c0.0213 0.96 0.0213 1.6427 0.0213 2.3893h-2.24v2.4107h2.24zm11.477-7.9146v2.1333h2.816v-2.1333zm0.0213 12.224c0 1.5573 0 2.6027-0.0213 3.584h2.816c-0.0213-0.98133-0.0213-2.0267-0.0213-3.5627v-5.312c0-1.5147 0-2.6453 0.0213-3.5413h-2.816c0.0213 0.896 0.0213 2.048 0.0213 3.5413zm6.3146 0.17067c0 1.6 0 2.4747-0.0213 3.4133h2.816c-0.0213-0.93866-0.0213-1.7707-0.0213-3.4133v-2.816c0-3.0507 0.896-3.9253 4.7787-3.9253 4.0107 0 4.736 0.93867 4.736 3.6267v3.1573c0 1.728 0 2.368-0.0213 3.3707h2.816c-0.0213-1.0453-0.0213-1.9413-0.0213-3.3707v-1.3227c0-1.4293 0.0213-2.0053 0.0213-2.944 0-3.5627-1.0453-5.0347-6.4853-5.0347-3.1787 0-4.992 0.74667-5.9733 2.1973l-0.0213-1.9413h-2.624c0.0213 0.832 0.0213 1.6427 0.0213 3.1147zm25.067 2.0267c3.136 0 4.928-0.704 5.888-1.984v1.4293c-0.0427 1.984-0.768 2.8587-5.5467 2.8587-4.0107 0-4.672-0.512-4.672-1.6213l-2.624 0.0853c0 2.9653 1.28 3.8613 7.3386 3.8613 6.6133 0 8.2346-1.2373 8.2346-4.7573 0-1.664-0.0213-2.9013-0.0213-4.8853v-3.2c0-1.1093 0-1.984 0.0213-2.816h-2.6239l-0.0213 1.7707c-0.96-1.3227-2.7733-2.0267-5.9733-2.0267-5.3973 0-7.296 1.0453-7.296 5.5467v0.192c0 4.5227 2.0053 5.5467 7.296 5.5467zm0.72533-2.4107c-4.3093 0-5.2266-0.78934-5.2266-3.1573v-0.17067c0-2.3467 1.088-3.136 5.2053-3.136 4.2667 0 5.12 0.81066 5.12 3.136 0 2.368-0.93866 3.328-5.0987 3.328zm20.224-4.096c0 1.2373-0.0213 2.4747-0.0213 3.456 0 3.648 1.216 4.544 6.464 4.544 0.87466 0 1.7067-0.0427 2.496-0.10667l-0.0213-2.4107c-0.85333 0.064-1.3013 0.0853-2.24 0.0853-3.1787 0-3.904-0.31999-3.904-2.7733v-4.9067h6.144v-2.4107h-6.144c0-1.0667 0-1.8773 0.0213-2.432l-2.816 0.0427c0.0213 0.96 0.0213 1.6427 0.0213 2.3893h-2.24v2.4107h2.24zm11.477 4.3093c0 1.6427 0 2.5173-0.0213 3.584h2.7947c-0.0213-1.152-0.0213-2.0693-0.0213-3.6267v-2.6027c0-3.0507 0.896-3.9253 4.7787-3.9253 4.032 0 4.7573 0.93867 4.7573 3.6267v3.1573c0 1.5147 0 2.2613-0.0213 3.3707h2.7947c-0.0213-1.216-0.0213-2.2187-0.0213-3.328v-1.3653c0-1.4293 0.0213-2.0053 0.0213-2.944 0-3.5627-1.0453-5.0347-6.4853-5.0347-3.0933 0-4.9067 0.704-5.888 2.112 0.0427-1.4507 0.10666-5.0133 0.10666-5.3973h-2.816c0.0213 0.91733 0.0213 2.0267 0.0213 3.5413zm25.749 3.84c6.3787 0 7.6373-1.2373 7.6373-4.3733l-2.7093-0.0853c0 1.4507-0.55466 2.1333-4.9066 2.1333-4.1387 0-5.0773-0.72533-5.2053-3.328h12.821c0-0.32 0.0213-0.704 0-1.1307-0.0213-4.736-1.536-6.144-7.7653-6.144-6.208 0-7.872 1.408-7.872 6.144v0.64c0 4.736 1.664 6.144 8 6.144zm-0.10666-10.795c4.0107 0 4.8 0.74667 4.864 3.1573h-9.9413c0.17067-2.496 1.152-3.1573 5.0773-3.1573zm33.771 10.539v-2.6027c-1.7067 0.0213-5.0347 0.0213-7.296 0.0213h-4.9067v-9.792c0-1.1307 0-1.9627 0.0213-2.7733h-2.88c0.0213 0.81067 0.0213 1.6427 0.0213 2.7733v8.9813c0 1.5147 0 2.4107-0.0213 3.392zm8.5119 0.256c3.4347 0 5.2267-0.66133 6.08-1.792l0.0427 1.536h2.5173c-0.0213-1.6853-0.0213-2.7733-0.0213-4.0533 0-1.9627 0.0213-2.688 0.0213-4.3733 0-2.9013-1.152-4.2453-7.5733-4.2453-5.8667 0-7.2747 1.1307-7.232 3.9467l2.6667 0.064c-0.0213-1.3227 0.42667-1.7493 4.5227-1.7493 4.2027 0 4.8427 0.59734 4.8427 2.56v1.4293c-0.93866-0.832-2.7093-1.2587-5.8667-1.2587-5.5253 0-6.6986 1.1733-6.6986 4.0107 0 2.7947 1.1307 3.9253 6.6986 3.9253zm0.98134-2.1547c-4.1173 0-4.8853-0.46933-4.8853-1.8347 0-1.3867 0.512-1.9627 4.928-1.9627 4.2453 0 4.9067 0.55467 4.9067 1.4507v0.53333c0 1.2373-0.66133 1.8133-4.9493 1.8133zm11.136-1.5147c0 1.6 0 2.4747-0.0213 3.4133h2.816c-0.0213-0.93866-0.0213-1.7707-0.0213-3.4133v-2.816c0-3.0507 0.896-3.9253 4.7787-3.9253 4.0107 0 4.736 0.93867 4.736 3.6267v3.1573c0 1.728 0 2.368-0.0213 3.3707h2.816c-0.0213-1.0453-0.0213-1.9413-0.0213-3.3707v-1.3227c0-1.4293 0.0213-2.0053 0.0213-2.944 0-3.5627-1.0453-5.0347-6.4853-5.0347-3.1787 0-4.992 0.74667-5.9733 2.1973l-0.0213-1.9413h-2.624c0.0213 0.832 0.0213 1.6427 0.0213 3.1147zm25.003 3.6693c3.2213 0 5.056-0.74666 6.0373-2.1973l0.0213 1.9413h2.624c-0.0213-1.0453-0.0213-1.7707-0.0213-3.4133v-9.0027c0-1.536 0-2.6453 0.0213-3.5413h-2.8587c0.0213 0.87466 0.0427 3.0933 0.0427 5.2693-1.0027-1.3227-2.7947-1.984-5.8027-1.984-5.7386 0-7.296 1.3653-7.296 6.144v0.64c0 4.7787 1.5573 6.144 7.232 6.144zm0.768-2.5173c-4.352 0-5.2053-0.76799-5.2053-3.8613v-0.17067c0-3.136 0.85333-3.904 5.2693-3.904 4.2027 0 5.056 0.85333 5.056 3.904v0.17067c0 2.9867-0.85334 3.8613-5.12 3.8613zm18.048 2.5173c6.272 0 7.168-1.024 7.168-3.712 0-2.496-0.81066-3.52-7.104-3.9893-4.4587-0.36266-4.7573-0.68266-4.7573-1.6427 0-0.98133 0.576-1.3867 4.224-1.3867 3.84 0 4.3947 0.448 4.3947 1.6v0.27733l2.752-0.064c0-2.9867-0.98133-4.0107-7.0613-4.0107-5.8027 0-6.976 1.088-6.976 3.7333 0 2.56 0.95999 3.4133 6.6346 3.8613 4.736 0.36267 5.0987 0.72533 5.0987 1.792 0 1.024-0.384 1.4293-4.3093 1.4293-4.3093 0-4.864-0.42667-4.864-1.8987v-0.32l-2.7307 0.064c0 3.5627 1.152 4.2667 7.5306 4.2667zm16.896 0c6.272 0 7.7653-1.408 7.7653-5.2053l-2.7307-0.064c0 1.984-0.81066 2.7947-5.0133 2.7947-4.288 0-5.0987-0.81066-5.0987-3.904v-0.17067c0-3.1147 0.81066-3.904 5.0987-3.904 4.2027 0 4.9706 0.832 4.9706 2.7947v-0.0213l2.7307-0.064c0-3.904-1.4293-5.184-7.7227-5.184-6.1866 0-7.872 1.408-7.872 6.144v0.64c0 4.736 1.7067 6.144 7.872 6.144zm16.619 0c3.4347 0 5.2267-0.66133 6.08-1.792l0.0427 1.536h2.5173c-0.0213-1.6853-0.0213-2.7733-0.0213-4.0533 0-1.9627 0.0213-2.688 0.0213-4.3733 0-2.9013-1.152-4.2453-7.5733-4.2453-5.8666 0-7.2746 1.1307-7.232 3.9467l2.6667 0.064c-0.0213-1.3227 0.42666-1.7493 4.5227-1.7493 4.2027 0 4.8427 0.59734 4.8427 2.56v1.4293c-0.93867-0.832-2.7093-1.2587-5.8667-1.2587-5.5253 0-6.6987 1.1733-6.6987 4.0107 0 2.7947 1.1307 3.9253 6.6987 3.9253zm0.98133-2.1547c-4.1173 0-4.8853-0.46933-4.8853-1.8347 0-1.3867 0.512-1.9627 4.928-1.9627 4.2453 0 4.9067 0.55467 4.9067 1.4507v0.53333c0 1.2373-0.66134 1.8133-4.9493 1.8133zm11.136 1.8987c0 1.28 0 2.3467-0.0213 2.9867h2.8373c-0.0213-0.85334-0.0213-2.4533-0.0213-4.7147 1.0027 1.3227 2.7733 1.984 5.7813 1.984 5.76 0 7.3173-1.3653 7.3173-6.144v-0.64c0-4.7786-1.536-6.144-7.2107-6.144-3.2 0-5.0347 0.72534-6.016 2.1333v-1.8773h-2.688c0.0213 0.896 0.0213 1.6853 0.0213 2.7093zm2.7733-6.1226v-0.17067c0-2.9867 0.85333-3.8613 5.1413-3.8613 4.3307 0 5.184 0.768 5.184 3.8613v0.17067c0 3.072-0.85333 3.8613-5.2907 3.8613-4.1813 0-5.0346-0.85333-5.0346-3.8613zm23.125 6.3786c6.3787 0 7.6373-1.2373 7.6373-4.3733l-2.7093-0.0853c0 1.4507-0.55466 2.1333-4.9066 2.1333-4.1387 0-5.0773-0.72533-5.2053-3.328h12.821c0-0.32 0.0213-0.704 0-1.1307-0.0213-4.736-1.536-6.144-7.7653-6.144-6.208 0-7.872 1.408-7.872 6.144v0.64c0 4.736 1.664 6.144 8 6.144zm-0.10666-10.795c4.0107 0 4.8 0.74667 4.864 3.1573h-9.9413c0.17067-2.496 1.152-3.1573 5.0773-3.1573zm25.771 10.795c6.3573 0 7.9786-1.408 7.9786-6.144v-0.64c0-4.736-1.6213-6.144-7.9786-6.144-6.336 0-7.9573 1.408-7.9573 6.144v0.64c0 4.736 1.6213 6.144 7.9573 6.144zm0-2.4747c-4.352 0-5.1627-0.81066-5.1627-3.904v-0.17067c0-3.1147 0.81067-3.904 5.1627-3.904 4.3733 0 5.1627 0.78933 5.1627 3.904v0.17067c0 3.0933-0.78933 3.904-5.1627 3.904zm11.456-4.6933c0 1.7067 0 5.2266-0.0213 6.912h2.816c-0.0213-0.98133-0.0213-2.112-0.0213-3.4133v-6.2507h3.3067v-2.4107h-3.3067v-0.14934c0-1.2373 0.29867-1.5147 1.344-1.5787 0.832-0.064 1.728-0.0853 2.24-0.0853l-0.0853-2.1973c-0.59733 0.0213-1.6853 0.0427-2.7733 0.128-2.6667 0.17066-3.52 0.91733-3.52 3.4773v0.40534h-2.048l-0.0853 2.4107h2.1547v2.752zm16.32 3.5413c0 1.408 0 2.24-0.0213 3.3707h8.5973c7.4667 0 9.3227-1.728 9.3227-7.4026v-0.34133c0-5.6747-1.856-7.4027-9.3013-7.4027h-8.6187c0.0213 0.96 0.0213 1.664 0.0213 2.7733zm8.5973-9.2586c5.44 0 6.4 1.024 6.4 4.9493v0.21333c0 3.9253-0.96 4.9493-6.4213 4.9493h-5.7386v-10.112zm12.181-3.1787v2.1333h2.816v-2.1333zm0.0213 12.224c0 1.5573 0 2.6027-0.0213 3.584h2.816c-0.0213-0.98133-0.0213-2.0267-0.0213-3.5627v-5.312c0-1.5147 0-2.6453 0.0213-3.5413h-2.816c0.0213 0.896 0.0213 2.048 0.0213 3.5413zm12.864 2.1973c3.136 0 4.928-0.704 5.888-1.984v1.4293c-0.0427 1.984-0.768 2.8587-5.5466 2.8587-4.0107 0-4.672-0.512-4.672-1.6213l-2.624 0.0853c0 2.9653 1.28 3.8613 7.3386 3.8613 6.6133 0 8.2347-1.2373 8.2347-4.7573 0-1.664-0.0213-2.9013-0.0213-4.8853v-3.2c0-1.1093 0-1.984 0.0213-2.816h-2.624l-0.0213 1.7707c-0.96-1.3227-2.7733-2.0267-5.9733-2.0267-5.3973 0-7.296 1.0453-7.296 5.5467v0.192c0 4.5227 2.0053 5.5467 7.296 5.5467zm0.72533-2.4107c-4.3093 0-5.2266-0.78934-5.2266-3.1573v-0.17067c0-2.3467 1.088-3.136 5.2053-3.136 4.2667 0 5.12 0.81066 5.12 3.136 0 2.368-0.93866 3.328-5.0987 3.328zm11.392-12.011v2.1333h2.816v-2.1333zm0.0213 12.224c0 1.5573 0 2.6027-0.0213 3.584h2.816c-0.0213-0.98133-0.0213-2.0267-0.0213-3.5627v-5.312c0-1.5147 0-2.6453 0.0213-3.5413h-2.816c0.0213 0.896 0.0213 2.048 0.0213 3.5413zm7.104-4.3093c0 1.2373-0.0213 2.4747-0.0213 3.456 0 3.648 1.216 4.544 6.464 4.544 0.87467 0 1.7067-0.0427 2.496-0.10667l-0.0213-2.4107c-0.85333 0.064-1.3013 0.0853-2.24 0.0853-3.1787 0-3.904-0.31999-3.904-2.7733v-4.9067h6.144v-2.4107h-6.144c0-1.0667 0-1.8773 0.0213-2.432l-2.816 0.0427c0.0213 0.96 0.0213 1.6427 0.0213 2.3893h-2.24v2.4107h2.24zm17.621 8.1493c3.4347 0 5.2267-0.66133 6.08-1.792l0.0427 1.536h2.5173c-0.0213-1.6853-0.0213-2.7733-0.0213-4.0533 0-1.9627 0.0213-2.688 0.0213-4.3733 0-2.9013-1.152-4.2453-7.5733-4.2453-5.8667 0-7.2746 1.1307-7.232 3.9467l2.6667 0.064c-0.0213-1.3227 0.42666-1.7493 4.5227-1.7493 4.2027 0 4.8426 0.59734 4.8426 2.56v1.4293c-0.93866-0.832-2.7093-1.2587-5.8666-1.2587-5.5253 0-6.6987 1.1733-6.6987 4.0107 0 2.7947 1.1307 3.9253 6.6987 3.9253zm0.98133-2.1547c-4.1173 0-4.8853-0.46933-4.8853-1.8347 0-1.3867 0.512-1.9627 4.928-1.9627 4.2453 0 4.9066 0.55467 4.9066 1.4507v0.53333c0 1.2373-0.66133 1.8133-4.9493 1.8133zm11.179-1.6853c0 1.5573 0 2.6027-0.0213 3.584h2.816c-0.0213-0.98133-0.0213-2.0267-0.0213-3.5627v-8.832c0-1.5147 0-2.6667 0.0213-3.5627h-2.816c0.0213 0.91733 0.0213 2.048 0.0213 3.5413zm14.549 0.21333c0 1.408 0 2.24-0.0213 3.3707h8.5973c7.4667 0 9.3226-1.728 9.3226-7.4026v-0.34133c0-5.6747-1.856-7.4027-9.3013-7.4027h-8.6187c0.0213 0.96 0.0213 1.664 0.0213 2.7733zm8.5973-9.2586c5.44 0 6.4 1.024 6.4 4.9493v0.21333c0 3.9253-0.96 4.9493-6.4213 4.9493h-5.7386v-10.112zm19.413 12.885c6.3787 0 7.6373-1.2373 7.6373-4.3733l-2.7093-0.0853c0 1.4507-0.55466 2.1333-4.9067 2.1333-4.1387 0-5.0773-0.72533-5.2053-3.328h12.821c0-0.32 0.0213-0.704 0-1.1307-0.0213-4.736-1.536-6.144-7.7653-6.144-6.208 0-7.872 1.408-7.872 6.144v0.64c0 4.736 1.664 6.144 8 6.144zm-0.10667-10.795c4.0107 0 4.8 0.74667 4.864 3.1573h-9.9413c0.17066-2.496 1.152-3.1573 5.0773-3.1573zm19.072 10.539c1.4507-3.0293 4.5867-9.5146 6.0373-12.416h-3.008l-2.5173 5.3333c-0.72533 1.536-1.4293 3.0933-2.0267 4.4373h-1.536c-0.59733-1.344-1.3227-2.9227-2.0267-4.4587l-2.496-5.312h-3.136c1.4293 2.9013 4.672 9.7067 5.9307 12.416zm14.656 0.256c6.3786 0 7.6373-1.2373 7.6373-4.3733l-2.7093-0.0853c0 1.4507-0.55467 2.1333-4.9067 2.1333-4.1387 0-5.0773-0.72533-5.2053-3.328h12.821c0-0.32 0.0213-0.704 0-1.1307-0.0213-4.736-1.536-6.144-7.7653-6.144-6.208 0-7.872 1.408-7.872 6.144v0.64c0 4.736 1.664 6.144 8 6.144zm-0.10667-10.795c4.0107 0 4.8 0.74667 4.864 3.1573h-9.9413c0.17067-2.496 1.152-3.1573 5.0773-3.1573zm10.539 6.9547c0 1.5573 0 2.6027-0.0213 3.584h2.816c-0.0213-0.98133-0.0213-2.0267-0.0213-3.5627v-8.832c0-1.5147 0-2.6667 0.0213-3.5627h-2.816c0.0213 0.91733 0.0213 2.048 0.0213 3.5413zm13.525 3.84c6.3573 0 7.9786-1.408 7.9786-6.144v-0.64c0-4.736-1.6213-6.144-7.9786-6.144-6.336 0-7.9573 1.408-7.9573 6.144v0.64c0 4.736 1.6213 6.144 7.9573 6.144zm0-2.4747c-4.352 0-5.1627-0.81066-5.1627-3.904v-0.17067c0-3.1147 0.81067-3.904 5.1627-3.904 4.3733 0 5.1627 0.78933 5.1627 3.904v0.17067c0 3.0933-0.78934 3.904-5.1627 3.904zm10.731 2.2187c0 1.28 0 2.3467-0.0213 2.9867h2.8373c-0.0213-0.85334-0.0213-2.4533-0.0213-4.7147 1.0027 1.3227 2.7733 1.984 5.7813 1.984 5.76 0 7.3173-1.3653 7.3173-6.144v-0.64c0-4.7786-1.536-6.144-7.2107-6.144-3.2 0-5.0347 0.72534-6.016 2.1333v-1.8773h-2.688c0.0213 0.896 0.0213 1.6853 0.0213 2.7093zm2.7733-6.1226v-0.17067c0-2.9867 0.85333-3.8613 5.1413-3.8613 4.3307 0 5.184 0.768 5.184 3.8613v0.17067c0 3.072-0.85333 3.8613-5.2906 3.8613-4.1813 0-5.0347-0.85333-5.0347-3.8613zm15.872 2.7093c0 1.6 0 2.4747-0.0213 3.4133h2.816c-0.0213-0.93866-0.0213-1.7707-0.0213-3.4133v-2.816c0-3.0507 0.87467-3.9253 3.968-3.9253 2.752 0 3.4987 0.66134 3.4987 2.8587v3.9467c0 1.6 0 2.2827-0.0213 3.3493h2.7947c-0.0213-1.3013-0.0213-2.2613-0.0213-3.4133v-2.816c0-3.0507 0.93867-3.9253 3.9893-3.9253 2.752 0 3.4987 0.66134 3.4987 2.8587v3.9253c0 1.6213 0 2.304-0.0213 3.3707h2.816c-0.0213-1.28-0.0213-2.24-0.0213-3.3707v-1.152c0-1.92 0.0213-2.944 0.0213-3.904 0-3.0507-1.0453-4.2453-5.2267-4.2453-2.752 0-4.352 0.768-5.2053 2.2827-0.512-1.6213-1.8773-2.2827-4.9493-2.2827-2.7307 0-4.3733 0.72534-5.2693 2.24l-0.0213-1.984h-2.624c0.0213 0.832 0.0213 1.6427 0.0213 3.1147zm33.963 3.6693c6.3787 0 7.6373-1.2373 7.6373-4.3733l-2.7093-0.0853c0 1.4507-0.55466 2.1333-4.9066 2.1333-4.1387 0-5.0773-0.72533-5.2053-3.328h12.821c0-0.32 0.0213-0.704 0-1.1307-0.0213-4.736-1.536-6.144-7.7653-6.144-6.208 0-7.872 1.408-7.872 6.144v0.64c0 4.736 1.664 6.144 8 6.144zm-0.10666-10.795c4.0107 0 4.8 0.74667 4.864 3.1573h-9.9413c0.17067-2.496 1.152-3.1573 5.0773-3.1573zm10.496 7.1253c0 1.6 0 2.4747-0.0213 3.4133h2.816c-0.0213-0.93866-0.0213-1.7707-0.0213-3.4133v-2.816c0-3.0507 0.896-3.9253 4.7787-3.9253 4.0107 0 4.736 0.93867 4.736 3.6267v3.1573c0 1.728 0 2.368-0.0213 3.3707h2.816c-0.0213-1.0453-0.0213-1.9413-0.0213-3.3707v-1.3227c0-1.4293 0.0213-2.0053 0.0213-2.944 0-3.5627-1.0453-5.0347-6.4853-5.0347-3.1787 0-4.992 0.74667-5.9733 2.1973l-0.0213-1.9413h-2.624c0.0213 0.832 0.0213 1.6427 0.0213 3.1147zm19.307-4.48c0 1.2373-0.0213 2.4747-0.0213 3.456 0 3.648 1.216 4.544 6.464 4.544 0.87467 0 1.7067-0.0427 2.496-0.10667l-0.0213-2.4107c-0.85333 0.064-1.3013 0.0853-2.24 0.0853-3.1787 0-3.904-0.31999-3.904-2.7733v-4.9067h6.144v-2.4107h-6.144c0-1.0667 0-1.8773 0.0213-2.432l-2.816 0.0427c0.0213 0.96 0.0213 1.6427 0.0213 2.3893h-2.24v2.4107h2.24zm11.051 4.7787v3.1147h3.2853v-3.1147z"/>
</g>
</g>
</svg>
